nColumns=19
nRows=73
DataType=double
version=3
OpenSimVersion=4.1
endheader
time	ground_force_calcn_r_vx	ground_force_calcn_r_vy	ground_force_calcn_r_vz	ground_force_calcn_r_px	ground_force_calcn_r_py	ground_force_calcn_r_pz	ground_force_calcn_r_mx	ground_force_calcn_r_my	ground_force_calcn_r_mz	ground_force_calcn_l_vx	ground_force_calcn_l_vy	ground_force_calcn_l_vz	ground_force_calcn_l_px	ground_force_calcn_l_py	ground_force_calcn_l_pz	ground_force_calcn_l_mx	ground_force_calcn_l_my	ground_force_calcn_l_mz
0.025	0	0	0	0	0	0	0	0	0	252.41	1343.39	-91.9112	0.957082	0	-0.316679	4.08421	21.7372	-1.48721
0.033333	0	0	0	0	0	0	0	0	0	250.52	1090.77	-79.8797	0.932084	0	-0.310757	3.67801	16.0141	-1.17276
0.041667	0	0	0	0	0	0	0	0	0	245.238	822.206	-65.5971	0.898407	0	-0.305338	3.03494	10.1752	-0.811797
0.05	0	0	0	0	0	0	0	0	0	219.133	575.623	-50.4358	0.864443	0	-0.302119	1.89585	4.98006	-0.43635
0.058333	0	0	0	0	0	0	0	0	0	170.101	373.919	-36.0227	0.839851	0	-0.301336	0.449004	0.987006	-0.0950865
0.066667	0	0	0	0	0	0	0	0	0	114.622	223.885	-24.3394	0.829344	0	-0.302951	-0.861991	-1.68368	0.18304
0.075	0	0	0	0	0	0	0	0	0	67.8674	121.044	-16.4311	0.826731	0	-0.308323	-1.74982	-3.12087	0.423641
0.083333	0	0	0	0	0	0	0	0	0	35.3138	58.1706	-11.2828	0.808453	0	-0.317475	-2.11741	-3.4879	0.676516
0.091667	0	0	0	0	0	0	0	0	0	14.0331	25.2042	-6.97219	0.763862	0	-0.311823	-1.84755	-3.3183	0.917934
0.1	0	0	0	0	0	0	0	0	0	2.35078	10.9275	-2.94756	0.798652	0	-0.173284	-0.685838	-3.1881	0.859949
0.108333	0	0	0	0	0	0	0	0	0	0	0	0	0	0	0	0	0	0
0.116667	0	0	0	0	0	0	0	0	0	0	0	0	0	0	0	0	0	0
0.125	0	0	0	0	0	0	0	0	0	0	0	0	0	0	0	0	0	0
0.133333	0	0	0	0	0	0	0	0	0	0	0	0	0	0	0	0	0	0
0.141667	0	0	0	0	0	0	0	0	0	0	0	0	0	0	0	0	0	0
0.15	0	0	0	0	0	0	0	0	0	0	0	0	0	0	0	0	0	0
0.158333	0	0	0	0	0	0	0	0	0	0	0	0	0	0	0	0	0	0
0.166667	0	0	0	0	0	0	0	0	0	0	0	0	0	0	0	0	0	0
0.175	0	0	0	0	0	0	0	0	0	0	0	0	0	0	0	0	0	0
0.183333	0	0	0	0	0	0	0	0	0	0	0	0	0	0	0	0	0	0
0.191667	0.578588	12.1209	-3.72061	0.969039	0	-0.176627	-0.202135	-4.23454	1.29983	0	0	0	0	0	0	0	0	0
0.2	-6.29725	24.5441	-9.68138	1.2215	0	-0.199281	0.652808	-2.54438	1.00363	0	0	0	0	0	0	0	0	0
0.208333	-25.5023	64.8482	-20.0271	1.37005	0	-0.245445	0.165578	-0.421038	0.130029	0	0	0	0	0	0	0	0	0
0.216667	-68.8698	170.932	-34.63	1.40121	0	-0.257862	-0.876026	2.17426	-0.440496	0	0	0	0	0	0	0	0	0
0.225	-136.278	366.921	-50.8403	1.402	0	-0.260083	-1.7882	4.81461	-0.667109	0	0	0	0	0	0	0	0	0
0.233333	-191.106	627.205	-63.0168	1.38805	0	-0.26185	-2.07878	6.82252	-0.685474	0	0	0	0	0	0	0	0	0
0.241667	-199.752	915.976	-64.3442	1.35501	0	-0.265092	-1.63156	7.48163	-0.525559	0	0	0	0	0	0	0	0	0
0.25	-193.61	1209.49	-49.9282	1.31257	0	-0.2697	-1.00808	6.29756	-0.259966	0	0	0	0	0	0	0	0	0
0.258333	-209.988	1465.03	-20.657	1.2759	0	-0.274008	-0.520439	3.63096	-0.0511969	0	0	0	0	0	0	0	0	0
0.266667	-235.59	1655.02	13.5455	1.24618	0	-0.276998	-0.055876	0.39253	0.00321264	0	0	0	0	0	0	0	0	0
0.275	-238.682	1790.21	37.8466	1.21654	0	-0.279269	0.330343	-2.47771	-0.0523808	0	0	0	0	0	0	0	0	0
0.283333	-201.067	1890.06	44.3552	1.18254	0	-0.281334	0.461105	-4.33447	-0.10172	0	0	0	0	0	0	0	0	0
0.291667	-138.054	1956.44	38.5864	1.14665	0	-0.282874	0.348976	-4.94555	-0.0975396	0	0	0	0	0	0	0	0	0
0.3	-73.3608	1980.85	31.9765	1.11209	0	-0.283335	0.16663	-4.49924	-0.0726305	0	0	0	0	0	0	0	0	0
0.308333	-7.81195	1956.54	29.8665	1.0779	0	-0.282892	0.0138219	-3.46175	-0.0528435	0	0	0	0	0	0	0	0	0
0.316667	65.4438	1876.23	29.4641	1.04254	0	-0.282647	-0.0813838	-2.33322	-0.0366406	0	0	0	0	0	0	0	0	0
0.325	146.649	1736.51	27.6902	1.00554	0	-0.28333	-0.125268	-1.48333	-0.0236531	0	0	0	0	0	0	0	0	0
0.333333	222.315	1545.93	26.0806	0.967819	0	-0.284489	-0.15545	-1.08097	-0.0182365	0	0	0	0	0	0	0	0	0
0.341667	273.589	1320.41	26.9462	0.931504	0	-0.285112	-0.225426	-1.08796	-0.0222026	0	0	0	0	0	0	0	0	0
0.35	292.468	1073.24	28.4982	0.897541	0	-0.284919	-0.359325	-1.31858	-0.0350128	0	0	0	0	0	0	0	0	0
0.358333	278.068	817.333	26.5808	0.866001	0	-0.284527	-0.528522	-1.5535	-0.050522	0	0	0	0	0	0	0	0	0
0.366667	237.414	574.235	20.0144	0.836472	0	-0.284362	-0.679278	-1.64297	-0.0572642	0	0	0	0	0	0	0	0	0
0.375	181.833	366.045	11.8909	0.810145	0	-0.284059	-0.768278	-1.54661	-0.0502412	0	0	0	0	0	0	0	0	0
0.383333	124.395	207.324	5.81676	0.790289	0	-0.282221	-0.781721	-1.30287	-0.0365538	0	0	0	0	0	0	0	0	0
0.391667	75.202	103.345	2.63331	0.785614	0	-0.275667	-0.722	-0.992192	-0.0252819	0	0	0	0	0	0	0	0	0
0.4	38.6761	45.7935	1.08013	0.826228	0	-0.260738	-0.604925	-0.716248	-0.0168942	0	0	0	0	0	0	0	0	0
0.408333	15.8509	19.1048	0.13095	0.958811	0	-0.229312	-0.465734	-0.561341	-0.00384761	0	0	0	0	0	0	0	0	0
0.416667	0	0	0	0	0	0	0	0	0	0	0	0	0	0	0	0	0	0
0.425	0	0	0	0	0	0	0	0	0	0	0	0	0	0	0	0	0	0
0.433333	0	0	0	0	0	0	0	0	0	0	0	0	0	0	0	0	0	0
0.441667	0	0	0	0	0	0	0	0	0	0	0	0	0	0	0	0	0	0
0.45	0	0	0	0	0	0	0	0	0	0	0	0	0	0	0	0	0	0
0.458333	0	0	0	0	0	0	0	0	0	0	0	0	0	0	0	0	0	0
0.466667	0	0	0	0	0	0	0	0	0	0	0	0	0	0	0	0	0	0
0.475	0	0	0	0	0	0	0	0	0	0	0	0	0	0	0	0	0	0
0.483333	0	0	0	0	0	0	0	0	0	0	0	0	0	0	0	0	0	0
0.491667	0	0	0	0	0	0	0	0	0	0	0	0	0	0	0	0	0	0
0.5	0	0	0	0	0	0	0	0	0	0	0	0	0	0	0	0	0	0
0.508333	0	0	0	0	0	0	0	0	0	0	0	0	0	0	0	0	0	0
0.516667	0	0	0	0	0	0	0	0	0	0	0	0	0	0	0	0	0	0
0.525	0	0	0	0	0	0	0	0	0	-0.0804921	15.5459	-0.659899	1.33471	0	-0.30384	-0.0137567	2.6569	-0.112782
0.533333	0	0	0	0	0	0	0	0	0	-12.5117	45.7691	-0.0251689	1.36083	0	-0.361429	-0.325528	1.19082	-0.000654844
0.541667	0	0	0	0	0	0	0	0	0	-44.421	130.108	5.41931	1.37133	0	-0.363113	0.270961	-0.793636	-0.0330569
0.55	0	0	0	0	0	0	0	0	0	-103.125	301.445	19.0611	1.37353	0	-0.35947	1.03566	-3.02734	-0.191426
0.558333	0	0	0	0	0	0	0	0	0	-168.477	549.526	40.011	1.3668	0	-0.353788	1.53932	-5.02084	-0.365567
0.566667	0	0	0	0	0	0	0	0	0	-199.882	830.062	58.6274	1.34299	0	-0.348133	1.46707	-6.0924	-0.430307
0.575	0	0	0	0	0	0	0	0	0	-197.657	1122.2	60.5098	1.30222	0	-0.343469	0.972945	-5.52388	-0.297852
0.583333	0	0	0	0	0	0	0	0	0	-196.64	1405.45	39.3752	1.26034	0	-0.339727	0.435683	-3.11396	-0.0872414
0.591667	0	0	0	0	0	0	0	0	0	-198.665	1644.53	3.81459	1.22568	0	-0.336098	-0.0712285	0.589624	0.00136767
0.6	0	0	0	0	0	0	0	0	0	-182.552	1823.89	-30.3883	1.19376	0	-0.33265	-0.465997	4.65579	-0.0775714
0.608333	0	0	0	0	0	0	0	0	0	-140.034	1945.33	-51.7077	1.16029	0	-0.329993	-0.586785	8.15153	-0.216671
0.616667	0	0	0	0	0	0	0	0	0	-82.75	2009.63	-57.5572	1.12671	0	-0.328264	-0.429391	10.428	-0.298665
0.625	0	0	0	0	0	0	0	0	0	-27.02	2016.72	-52.7097	1.09567	0	-0.327265	-0.151393	11.2997	-0.295333
